<svg width="46" height="46" viewBox="0 0 46 46" fill="none" xmlns="http://www.w3.org/2000/svg">
<path d="M14.3762 17.5249C14.4059 15.7891 15.3241 14.1309 16.935 12.9034C18.5458 11.676 20.7221 10.9764 23 10.9537C25.2779 10.9764 27.4542 11.676 29.065 12.9034C30.6759 14.1309 31.5941 15.7891 31.6238 17.5249C31.5941 19.2606 30.6759 20.9188 29.065 22.1463C27.4542 23.3737 25.2779 24.0734 23 24.096C20.7221 24.0734 18.5458 23.3737 16.935 22.1463C15.3241 20.9188 14.4059 19.2606 14.3762 17.5249ZM23 37.2384L34.4984 39.4288V32.6824C31.0307 34.2736 27.0475 35.0931 23 35.048C18.9525 35.0931 14.9693 34.2736 11.5016 32.6824V39.4288M23 4.38248C20.7347 4.35098 18.4849 4.67284 16.3889 5.32827C14.2928 5.9837 12.3949 6.95884 10.8116 8.19377C9.17345 9.40148 7.87889 10.8531 7.00851 12.4584C6.13813 14.0637 5.71054 15.7883 5.75233 17.5249C5.72238 19.2504 6.15573 20.9625 7.02576 22.5558C7.89579 24.1491 9.18413 25.5901 10.8116 26.7902C12.3875 28.037 14.2822 29.0244 16.3785 29.6912C18.4749 30.358 20.7285 30.6902 23 30.6672C25.2715 30.6902 27.5251 30.358 29.6215 29.6912C31.7178 29.0244 33.6125 28.037 35.1883 26.7902C36.8159 25.5901 38.1042 24.1491 38.9742 22.5558C39.8443 20.9625 40.2776 19.2504 40.2477 17.5249C40.2895 15.7883 39.8619 14.0637 38.9915 12.4584C38.1211 10.8531 36.8266 9.40148 35.1883 8.19377C33.6051 6.95884 31.7071 5.9837 29.6111 5.32827C27.5151 4.67284 25.2653 4.35098 23 4.38248ZM45.9969 17.5249C45.9357 19.6274 45.3807 21.7045 44.3584 23.658C43.4373 25.6456 42.0438 27.487 40.2477 29.0901V46L23 41.6192L5.75233 46V29.0901C2.0317 25.9063 -0.0155694 21.788 0.00311323 17.5249C-0.0475514 15.2262 0.520649 12.9441 1.67264 10.8193C2.82462 8.6945 4.53595 6.77218 6.70096 5.17102C8.81006 3.50653 11.3445 2.18909 14.1478 1.3C16.9511 0.410909 19.9638 -0.0309531 23 0.00168483C26.0362 -0.0309531 29.0489 0.410909 31.8522 1.3C34.6555 2.18909 37.1899 3.50653 39.299 5.17102C41.4641 6.77218 43.1754 8.6945 44.3274 10.8193C45.4794 12.9441 46.0475 15.2262 45.9969 17.5249Z" fill="black"/>
</svg>
