<svg width="46" height="46" viewBox="0 0 46 46" fill="none" xmlns="http://www.w3.org/2000/svg">
<path d="M1.21668 9.80928L10.6936 12.3755V23.4466C10.6979 26.3117 11.8362 29.0582 13.8589 31.0841C15.8817 33.11 18.6238 34.2501 21.4844 34.2545H24.5393C27.3999 34.2501 30.1421 33.11 32.1648 31.0841C34.1875 29.0582 35.3258 26.3117 35.3302 23.4466V12.3755L44.807 9.80928C45.1482 9.70962 45.4479 9.50182 45.6611 9.21707C45.8743 8.93232 45.9896 8.58599 45.9896 8.23005C45.9896 7.87411 45.8743 7.52778 45.6611 7.24303C45.4479 6.95828 45.1482 6.75048 44.807 6.65082L23.4553 0.0706925C23.1448 -0.0235642 22.8133 -0.0235642 22.5027 0.0706925L1.15098 6.65082C0.81169 6.75739 0.516091 6.97136 0.308604 7.26059C0.101117 7.54982 -0.00704989 7.89868 0.000356509 8.25474C0.00776291 8.61081 0.130343 8.95486 0.349677 9.23518C0.569011 9.5155 0.873251 9.71696 1.21668 9.80928ZM32.0453 23.4466C32.0409 25.4391 31.2488 27.3488 29.8421 28.7577C28.4354 30.1666 26.5287 30.96 24.5393 30.9644H21.4844C19.495 30.96 17.5884 30.1666 16.1817 28.7577C14.775 27.3488 13.9828 25.4391 13.9784 23.4466V13.2803L22.5684 15.6656C22.8575 15.7535 23.1662 15.7535 23.4553 15.6656L32.0453 13.2803V23.4466ZM23.0119 3.31141L38.5165 8.16425L23.0119 12.3755L7.50723 8.16425L23.0119 3.31141Z" fill="black"/>
<path d="M39.0747 35.1102C38.8842 34.8668 38.629 34.6822 38.3385 34.5774C38.048 34.4727 37.7339 34.4521 37.4323 34.5179L23.0116 37.7751L8.591 34.485C8.28933 34.4192 7.97523 34.4398 7.68472 34.5445C7.39421 34.6493 7.13907 34.8339 6.94855 35.0773L0.378792 43.3024C0.188156 43.5432 0.0686509 43.8326 0.0338165 44.1378C-0.00101795 44.4431 0.0502111 44.7521 0.181699 45.0297C0.310072 45.3158 0.517431 45.5592 0.779331 45.7311C1.04123 45.9031 1.34676 45.9965 1.6599 46.0003H44.3633C44.6729 45.9994 44.976 45.9109 45.2375 45.745C45.499 45.5791 45.7084 45.3425 45.8415 45.0626C45.973 44.785 46.0243 44.476 45.9894 44.1707C45.9546 43.8655 45.8351 43.5761 45.6445 43.3353L39.0747 35.1102ZM5.07617 42.7102L8.87021 37.9561L22.6503 41.0652C22.8887 41.1144 23.1346 41.1144 23.373 41.0652L37.153 37.989L40.9471 42.7102H5.07617Z" fill="black"/>
</svg>
