<svg width="46" height="46" viewBox="0 0 46 46" fill="none" xmlns="http://www.w3.org/2000/svg">
<path d="M15.3808 16.8691C15.0758 16.8691 14.7833 16.9903 14.5676 17.206C14.352 17.4216 14.2308 17.7141 14.2308 18.0191V28.0778C14.2308 28.3828 14.352 28.6753 14.5676 28.891C14.7833 29.1066 15.0758 29.2278 15.3808 29.2278C15.6858 29.2278 15.9783 29.1066 16.194 28.891C16.4097 28.6753 16.5308 28.3828 16.5308 28.0778V25.0648C16.5308 24.8961 16.7317 24.8103 16.8528 24.9268L20.9254 28.7494C21.0355 28.8528 21.1649 28.9335 21.3063 28.9869C21.4476 29.0403 21.598 29.0653 21.749 29.0605C21.9 29.0557 22.0486 29.0213 22.1863 28.9591C22.324 28.8969 22.4481 28.8082 22.5515 28.698C22.6548 28.5879 22.7355 28.4585 22.7889 28.3171C22.8423 28.1758 22.8673 28.0253 22.8625 27.8744C22.8578 27.7234 22.8233 27.5748 22.7611 27.4371C22.6989 27.2994 22.6102 27.1753 22.5001 27.0719L19.7615 24.5005C19.6435 24.3901 19.7079 24.1862 19.8658 24.1479C20.7414 23.9337 21.5083 23.4066 22.0221 22.666C22.5359 21.9254 22.761 21.0224 22.6551 20.1273C22.5491 19.2322 22.1193 18.4067 21.4468 17.8065C20.7743 17.2064 19.9055 16.873 19.0041 16.8691H15.3793H15.3808ZM16.7225 21.9491C16.6717 21.9491 16.6229 21.9289 16.587 21.8929C16.551 21.857 16.5308 21.8082 16.5308 21.7574V19.3608C16.5308 19.255 16.6167 19.1691 16.7225 19.1691H19.0041C19.1905 19.1629 19.3763 19.1943 19.5503 19.2614C19.7244 19.3284 19.8831 19.4298 20.0172 19.5595C20.1513 19.6892 20.2579 19.8445 20.3307 20.0162C20.4035 20.188 20.441 20.3726 20.441 20.5591C20.441 20.7456 20.4035 20.9302 20.3307 21.102C20.2579 21.2737 20.1513 21.429 20.0172 21.5587C19.8831 21.6884 19.7244 21.7898 19.5503 21.8568C19.3763 21.9239 19.1905 21.9553 19.0041 21.9491H16.7225ZM4.78088 18.1495C4.78088 17.8445 4.90204 17.552 5.11771 17.3363C5.33338 17.1206 5.62588 16.9995 5.93088 16.9995H11.5015C11.8065 16.9995 12.099 17.1206 12.3147 17.3363C12.5303 17.552 12.6515 17.8445 12.6515 18.1495C12.6515 18.4545 12.5303 18.747 12.3147 18.9626C12.099 19.1783 11.8065 19.2995 11.5015 19.2995H7.27255C7.22172 19.2995 7.17297 19.3197 7.13702 19.3556C7.10108 19.3916 7.08088 19.4403 7.08088 19.4911V21.9092C7.08088 22.0165 7.16675 22.1009 7.27255 22.1009H11.4263C11.7313 22.1009 12.0239 22.222 12.2395 22.4377C12.4552 22.6534 12.5763 22.9459 12.5763 23.2509C12.5763 23.5559 12.4552 23.8484 12.2395 24.064C12.0239 24.2797 11.7313 24.4009 11.4263 24.4009H7.27255C7.22172 24.4009 7.17297 24.4211 7.13702 24.457C7.10108 24.493 7.08088 24.5417 7.08088 24.5925V28.0073C7.08088 28.3123 6.95972 28.6048 6.74406 28.8204C6.52839 29.0361 6.23588 29.1573 5.93088 29.1573C5.62588 29.1573 5.33338 29.0361 5.11771 28.8204C4.90204 28.6048 4.78088 28.3123 4.78088 28.0073V18.1495ZM25.4042 16.9995C25.0992 16.9995 24.8067 17.1206 24.591 17.3363C24.3754 17.552 24.2542 17.8445 24.2542 18.1495V28.0088C24.2542 28.6436 24.7679 29.1588 25.4042 29.1588H30.9733C31.2783 29.1588 31.5708 29.0376 31.7865 28.822C32.0021 28.6063 32.1233 28.3138 32.1233 28.0088C32.1233 27.7038 32.0021 27.4113 31.7865 27.1956C31.5708 26.98 31.2783 26.8588 30.9733 26.8588H26.7459C26.7206 26.8588 26.6955 26.8538 26.6722 26.8441C26.6488 26.8343 26.6276 26.8201 26.6098 26.8021C26.592 26.7842 26.5779 26.7629 26.5684 26.7394C26.5588 26.716 26.554 26.6909 26.5542 26.6656V24.5941C26.5542 24.4883 26.6401 24.4024 26.7459 24.4024H30.8981C31.2031 24.4024 31.4957 24.2812 31.7113 24.0656C31.927 23.8499 32.0481 23.5574 32.0481 23.2524C32.0481 22.9474 31.927 22.6549 31.7113 22.4392C31.4957 22.2236 31.2031 22.1024 30.8981 22.1024H26.7459C26.6951 22.1024 26.6463 22.0822 26.6104 22.0463C26.5744 22.0103 26.5542 21.9616 26.5542 21.9107V19.4927C26.5542 19.3853 26.6401 19.301 26.7459 19.301H30.9733C31.2783 19.301 31.5708 19.1798 31.7865 18.9642C32.0021 18.7485 32.1233 18.456 32.1233 18.151C32.1233 17.846 32.0021 17.5535 31.7865 17.3378C31.5708 17.1222 31.2783 17.001 30.9733 17.001H25.4042V16.9995ZM34.8787 16.9995C34.5737 16.9995 34.2812 17.1206 34.0655 17.3363C33.8498 17.552 33.7287 17.8445 33.7287 18.1495V28.0088C33.7287 28.6436 34.2439 29.1588 34.8787 29.1588H40.4493C40.7543 29.1588 41.0468 29.0376 41.2625 28.822C41.4781 28.6063 41.5993 28.3138 41.5993 28.0088C41.5993 27.7038 41.4781 27.4113 41.2625 27.1956C41.0468 26.98 40.7543 26.8588 40.4493 26.8588H36.2203C36.195 26.8588 36.17 26.8538 36.1466 26.8441C36.1233 26.8343 36.1021 26.8201 36.0843 26.8021C36.0665 26.7842 36.0524 26.7629 36.0428 26.7394C36.0333 26.716 36.0285 26.6909 36.0287 26.6656V24.5941C36.0287 24.4883 36.1145 24.4024 36.2203 24.4024H40.3741C40.6791 24.4024 40.9717 24.2812 41.1873 24.0656C41.403 23.8499 41.5241 23.5574 41.5241 23.2524C41.5241 22.9474 41.403 22.6549 41.1873 22.4392C40.9717 22.2236 40.6791 22.1024 40.3741 22.1024H36.2203C36.1695 22.1024 36.1208 22.0822 36.0848 22.0463C36.0489 22.0103 36.0287 21.9616 36.0287 21.9107V19.4927C36.0287 19.3853 36.1145 19.301 36.2203 19.301H40.4493C40.7543 19.301 41.0468 19.1798 41.2625 18.9642C41.4781 18.7485 41.5993 18.456 41.5993 18.151C41.5993 17.846 41.4781 17.5535 41.2625 17.3378C41.0468 17.1222 40.7543 17.001 40.4493 17.001H34.8787V16.9995Z" fill="black"/>
<path d="M7.66667 0C6.65987 0 5.66292 0.198304 4.73276 0.58359C3.8026 0.968876 2.95743 1.5336 2.24551 2.24551C0.807736 3.68329 0 5.63334 0 7.66667V38.3333C0 40.3667 0.807736 42.3167 2.24551 43.7545C2.95743 44.4664 3.8026 45.0311 4.73276 45.4164C5.66292 45.8017 6.65987 46 7.66667 46H38.3333C40.3667 46 42.3167 45.1923 43.7545 43.7545C45.1923 42.3167 46 40.3667 46 38.3333V7.66667C46 6.65987 45.8017 5.66292 45.4164 4.73276C45.0311 3.8026 44.4664 2.95743 43.7545 2.24551C43.0426 1.5336 42.1974 0.968876 41.2672 0.58359C40.3371 0.198304 39.3401 0 38.3333 0H7.66667ZM3.06667 7.66667C3.06667 6.44667 3.55131 5.27664 4.41398 4.41398C5.27664 3.55131 6.44667 3.06667 7.66667 3.06667H38.3333C39.5533 3.06667 40.7234 3.55131 41.586 4.41398C42.4487 5.27664 42.9333 6.44667 42.9333 7.66667V38.3333C42.9333 39.5533 42.4487 40.7234 41.586 41.586C40.7234 42.4487 39.5533 42.9333 38.3333 42.9333H7.66667C6.44667 42.9333 5.27664 42.4487 4.41398 41.586C3.55131 40.7234 3.06667 39.5533 3.06667 38.3333V7.66667Z" fill="black"/>
</svg>
