<svg width="46" height="46" viewBox="0 0 46 46" fill="none" xmlns="http://www.w3.org/2000/svg">
<path d="M43.125 46C43.125 46 46 46 46 42.1667C46 38.3333 43.125 26.8333 31.625 26.8333C20.125 26.8333 17.25 38.3333 17.25 42.1667C17.25 46 20.125 46 20.125 46H43.125ZM20.1882 42.1667C20.167 42.1628 20.1459 42.1576 20.125 42.1513C20.1279 41.1393 20.6051 38.203 22.31 35.558C23.897 33.0778 26.6857 30.6667 31.625 30.6667C36.5614 30.6667 39.3501 33.0817 40.94 35.558C42.6449 38.203 43.1192 41.1432 43.125 42.1513L43.102 42.159C43.0886 42.162 43.0752 42.1646 43.0617 42.1667H20.1882ZM31.625 19.1667C33.15 19.1667 34.6125 18.3589 35.6909 16.9212C36.7692 15.4834 37.375 13.5333 37.375 11.5C37.375 9.46667 36.7692 7.51663 35.6909 6.07885C34.6125 4.64107 33.15 3.83333 31.625 3.83333C30.1 3.83333 28.6375 4.64107 27.5591 6.07885C26.4808 7.51663 25.875 9.46667 25.875 11.5C25.875 13.5333 26.4808 15.4834 27.5591 16.9212C28.6375 18.3589 30.1 19.1667 31.625 19.1667ZM40.25 11.5C40.25 13.0102 40.0269 14.5056 39.5935 15.9009C39.16 17.2961 38.5247 18.5639 37.7238 19.6317C36.9229 20.6996 35.9721 21.5467 34.9256 22.1246C33.8792 22.7025 32.7577 23 31.625 23C30.4923 23 29.3708 22.7025 28.3244 22.1246C27.2779 21.5467 26.3271 20.6996 25.5262 19.6317C24.7253 18.5639 24.09 17.2961 23.6565 15.9009C23.2231 14.5056 23 13.0102 23 11.5C23 8.45001 23.9087 5.52494 25.5262 3.36827C27.1437 1.2116 29.3375 0 31.625 0C33.9125 0 36.1063 1.2116 37.7238 3.36827C39.3413 5.52494 40.25 8.45001 40.25 11.5ZM19.941 27.9067C18.7909 27.4238 17.6055 27.1064 16.4047 26.9598C15.7301 26.8743 15.0527 26.8321 14.375 26.8333C2.875 26.8333 0 38.3333 0 42.1667C0 44.7235 0.957375 46 2.875 46H14.996C14.5698 44.8033 14.3572 43.4912 14.375 42.1667C14.375 38.295 15.4589 34.339 17.5088 31.0347C18.2074 29.9077 19.021 28.8535 19.941 27.9067ZM14.145 30.6667C12.4434 34.0755 11.5243 38.072 11.5 42.1667H2.875C2.875 41.17 3.3465 38.2183 5.06 35.558C6.62688 33.12 9.3495 30.7433 14.145 30.6705V30.6667ZM4.3125 13.4167C4.3125 10.3667 5.2212 7.44161 6.8387 5.28494C8.45621 3.12827 10.65 1.91667 12.9375 1.91667C15.225 1.91667 17.4188 3.12827 19.0363 5.28494C20.6538 7.44161 21.5625 10.3667 21.5625 13.4167C21.5625 16.4667 20.6538 19.3917 19.0363 21.5484C17.4188 23.7051 15.225 24.9167 12.9375 24.9167C10.65 24.9167 8.45621 23.7051 6.8387 21.5484C5.2212 19.3917 4.3125 16.4667 4.3125 13.4167ZM12.9375 5.75C11.4125 5.75 9.94997 6.55774 8.87164 7.99551C7.7933 9.43329 7.1875 11.3833 7.1875 13.4167C7.1875 15.45 7.7933 17.4 8.87164 18.8378C9.94997 20.2756 11.4125 21.0833 12.9375 21.0833C14.4625 21.0833 15.925 20.2756 17.0034 18.8378C18.0817 17.4 18.6875 15.45 18.6875 13.4167C18.6875 11.3833 18.0817 9.43329 17.0034 7.99551C15.925 6.55774 14.4625 5.75 12.9375 5.75Z" fill="black"/>
</svg>
