<svg width="50" height="50" viewBox="0 0 50 50" fill="none" xmlns="http://www.w3.org/2000/svg">
<path d="M25 35.7404V39.3088M25 18.0399V21.361M25 48C38.4167 48 48 43.619 48 33.8679C48 23.2688 42.25 16.2028 30.75 10.9032L35.2733 5.53303C35.5031 5.18068 35.6278 4.7786 35.6346 4.36755C35.6415 3.95649 35.5303 3.55108 35.3124 3.19239C35.0944 2.8337 34.7775 2.53449 34.3936 2.32509C34.0098 2.11568 33.5727 2.00353 33.1267 2H16.8733C16.4273 2.00353 15.9902 2.11568 15.6064 2.32509C15.2225 2.53449 14.9056 2.8337 14.6876 3.19239C14.4697 3.55108 14.3585 3.95649 14.3654 4.36755C14.3722 4.7786 14.4969 5.18068 14.7267 5.53303L19.25 10.9386C7.75 16.2734 2 23.3395 2 33.9386C2 43.619 11.5833 48 25 48Z" stroke="black" stroke-width="2.71429" stroke-linecap="round" stroke-linejoin="round"/>
<path d="M21.1669 34.1136C21.6347 34.6253 22.2233 35.0314 22.8878 35.3009C23.5523 35.5704 24.2749 35.696 25.0003 35.6681C26.1089 35.7377 27.2036 35.4085 28.0543 34.7496C28.905 34.0908 29.4454 33.1536 29.5619 32.1351C29.4454 31.1166 28.905 30.1793 28.0543 29.5205C27.2036 28.8616 26.1089 28.5324 25.0003 28.602C23.8916 28.6717 22.7969 28.3425 21.9462 27.6836C21.0955 27.0247 20.5551 26.0875 20.4386 25.069C20.5457 24.0469 21.0835 23.1044 21.9365 22.4437C22.7894 21.7831 23.8894 21.4572 25.0003 21.536C25.7128 21.4958 26.4262 21.6017 27.089 21.8461C27.7519 22.0904 28.3477 22.4672 28.8336 22.9492" stroke="black" stroke-width="2.71429" stroke-linecap="round" stroke-linejoin="round"/>
</svg>
